<?xml version="1.0" standalone="no"?>
<!DOCTYPE svg PUBLIC "-//W3C//DTD SVG 20010904//EN"
 "http://www.w3.org/TR/2001/REC-SVG-20010904/DTD/svg10.dtd">
<svg version="1.0" xmlns="http://www.w3.org/2000/svg"
 width="284.000000pt" height="284.000000pt" viewBox="0 0 284.000000 284.000000"
 preserveAspectRatio="xMidYMid meet">
<metadata>
Created by potrace 1.11, written by Peter Selinger 2001-2013
</metadata>
<g transform="translate(0.000000,284.000000) scale(0.100000,-0.100000)"
fill="#000000" stroke="none">
<path d="M0 1420 l0 -1420 1420 0 1420 0 0 1420 0 1420 -1420 0 -1420 0 0
-1420z m1156 808 c37 -55 137 -180 158 -197 10 -8 14 -22 11 -35 -3 -12 -2
-15 1 -8 5 10 17 3 44 -23 l39 -38 58 47 58 46 9 -53 c15 -95 48 -207 61 -207
6 0 39 18 73 39 33 22 63 37 66 34 3 -4 6 2 6 12 0 10 2 16 5 13 3 -2 -2 -39
-10 -82 -22 -113 -19 -166 11 -233 40 -89 54 -150 55 -243 2 -192 -85 -325
-276 -423 -95 -48 -104 -51 -180 -51 -69 -1 -92 4 -163 33 -45 18 -84 37 -87
41 -3 4 7 15 21 24 59 39 79 116 48 182 -40 84 -127 86 -211 5 -21 -20 -28
-49 -23 -95 1 -16 -2 -15 -25 8 -14 14 -23 31 -20 36 4 6 1 9 -6 8 -11 -3 -42
86 -32 95 2 3 -3 7 -11 10 -9 4 -18 2 -21 -3 -13 -22 -26 -6 -74 94 l-51 103
0 124 c0 69 -6 150 -14 182 -7 31 -12 57 -9 57 2 0 -4 14 -12 31 l-16 31 65
-37 c60 -33 65 -35 74 -18 9 17 34 127 47 206 l6 38 41 -35 c22 -20 45 -33 50
-30 24 15 163 267 182 332 10 31 19 28 52 -20z m-62 -1127 c45 -50 24 -141
-33 -141 -37 0 -61 35 -61 89 0 65 55 95 94 52z"/>
<path d="M1206 1309 c-10 -17 -16 -39 -13 -49 3 -11 -1 -21 -9 -24 -21 -8 -17
-37 6 -43 13 -4 23 -19 30 -47 28 -108 47 -134 91 -123 38 11 49 21 43 43 -4
16 -12 20 -29 16 -20 -3 -25 1 -34 35 -24 88 -25 103 -6 117 24 18 13 50 -14
41 -17 -5 -21 0 -27 29 -8 44 -14 45 -38 5z"/>
<path d="M1650 986 c7 -7 13 -7 20 0 6 6 3 10 -10 10 -13 0 -16 -4 -10 -10z"/>
</g>
</svg>
